<mxfile host="app.diagrams.net" modified="2022-02-26T04:46:06.048Z" agent="5.0 (Macintosh; Intel Mac OS X 10_15_7) AppleWebKit/537.36 (KHTML, like Gecko) Chrome/98.0.4758.109 Safari/537.36" etag="I4-toqcBs-WZjfCmG7jH" version="16.6.4" type="github">
  <diagram id="bl_UURNKTOxZVo4T1S_N" name="Page-1">
    <mxGraphModel dx="946" dy="520" grid="1" gridSize="10" guides="1" tooltips="1" connect="1" arrows="1" fold="1" page="1" pageScale="1" pageWidth="850" pageHeight="1100" math="0" shadow="0">
      <root>
        <mxCell id="0" />
        <mxCell id="1" parent="0" />
        <mxCell id="f7JHx65rmA6HuPHW3f_H-1" value="Profesör" style="swimlane;fontStyle=0;align=center;verticalAlign=top;childLayout=stackLayout;horizontal=1;startSize=26;horizontalStack=0;resizeParent=1;resizeLast=0;collapsible=1;marginBottom=0;rounded=0;shadow=0;strokeWidth=1;fillColor=#F2CC8F;strokeColor=#E07A5F;fontColor=#393C56;" vertex="1" parent="1">
          <mxGeometry x="160" y="528" width="160" height="70" as="geometry">
            <mxRectangle x="130" y="380" width="160" height="26" as="alternateBounds" />
          </mxGeometry>
        </mxCell>
        <mxCell id="f7JHx65rmA6HuPHW3f_H-2" value="" style="line;html=1;strokeWidth=1;align=left;verticalAlign=middle;spacingTop=-1;spacingLeft=3;spacingRight=3;rotatable=0;labelPosition=right;points=[];portConstraint=eastwest;fillColor=#F2CC8F;strokeColor=#E07A5F;fontColor=#393C56;labelBackgroundColor=#F4F1DE;" vertex="1" parent="f7JHx65rmA6HuPHW3f_H-1">
          <mxGeometry y="26" width="160" height="8" as="geometry" />
        </mxCell>
        <mxCell id="f7JHx65rmA6HuPHW3f_H-3" value="Memur" style="swimlane;fontStyle=0;align=center;verticalAlign=top;childLayout=stackLayout;horizontal=1;startSize=26;horizontalStack=0;resizeParent=1;resizeLast=0;collapsible=1;marginBottom=0;rounded=0;shadow=0;strokeWidth=1;fillColor=#F2CC8F;strokeColor=#E07A5F;fontColor=#393C56;" vertex="1" parent="1">
          <mxGeometry x="360" y="528" width="160" height="70" as="geometry">
            <mxRectangle x="340" y="380" width="170" height="26" as="alternateBounds" />
          </mxGeometry>
        </mxCell>
        <mxCell id="f7JHx65rmA6HuPHW3f_H-4" value="" style="line;html=1;strokeWidth=1;align=left;verticalAlign=middle;spacingTop=-1;spacingLeft=3;spacingRight=3;rotatable=0;labelPosition=right;points=[];portConstraint=eastwest;fillColor=#F2CC8F;strokeColor=#E07A5F;fontColor=#393C56;labelBackgroundColor=#F4F1DE;" vertex="1" parent="f7JHx65rmA6HuPHW3f_H-3">
          <mxGeometry y="26" width="160" height="8" as="geometry" />
        </mxCell>
        <mxCell id="f7JHx65rmA6HuPHW3f_H-5" value="" style="endArrow=block;endSize=10;endFill=0;shadow=0;strokeWidth=1;rounded=0;edgeStyle=elbowEdgeStyle;elbow=vertical;strokeColor=#E07A5F;fontColor=#393C56;labelBackgroundColor=#F4F1DE;" edge="1" parent="1">
          <mxGeometry width="160" relative="1" as="geometry">
            <mxPoint x="235" y="528" as="sourcePoint" />
            <mxPoint x="335" y="426.0000000000002" as="targetPoint" />
          </mxGeometry>
        </mxCell>
        <mxCell id="f7JHx65rmA6HuPHW3f_H-6" value="" style="endArrow=block;endSize=10;endFill=0;shadow=0;strokeWidth=1;rounded=0;edgeStyle=elbowEdgeStyle;elbow=vertical;strokeColor=#E07A5F;fontColor=#393C56;labelBackgroundColor=#F4F1DE;" edge="1" parent="1">
          <mxGeometry width="160" relative="1" as="geometry">
            <mxPoint x="445" y="528" as="sourcePoint" />
            <mxPoint x="335" y="426.0000000000002" as="targetPoint" />
          </mxGeometry>
        </mxCell>
        <mxCell id="f7JHx65rmA6HuPHW3f_H-7" value="Çalışan" style="swimlane;fontStyle=0;align=center;verticalAlign=top;childLayout=stackLayout;horizontal=1;startSize=20;horizontalStack=0;resizeParent=1;resizeLast=0;collapsible=1;marginBottom=0;rounded=0;shadow=0;strokeWidth=1;fillColor=#F2CC8F;strokeColor=#E07A5F;fontColor=#393C56;" vertex="1" parent="1">
          <mxGeometry x="260" y="358" width="160" height="70" as="geometry">
            <mxRectangle x="340" y="380" width="170" height="26" as="alternateBounds" />
          </mxGeometry>
        </mxCell>
        <mxCell id="f7JHx65rmA6HuPHW3f_H-8" value="1has" style="text;strokeColor=none;fillColor=none;align=left;verticalAlign=middle;spacingTop=-1;spacingLeft=4;spacingRight=4;rotatable=0;labelPosition=right;points=[];portConstraint=eastwest;rounded=0;sketch=0;fontColor=#393C56;" vertex="1" parent="f7JHx65rmA6HuPHW3f_H-7">
          <mxGeometry y="20" width="160" height="14" as="geometry" />
        </mxCell>
        <mxCell id="f7JHx65rmA6HuPHW3f_H-9" value="" style="line;html=1;strokeWidth=1;align=left;verticalAlign=middle;spacingTop=-1;spacingLeft=3;spacingRight=3;rotatable=0;labelPosition=right;points=[];portConstraint=eastwest;fillColor=#F2CC8F;strokeColor=#E07A5F;fontColor=#393C56;labelBackgroundColor=#F4F1DE;" vertex="1" parent="f7JHx65rmA6HuPHW3f_H-7">
          <mxGeometry y="34" width="160" height="8" as="geometry" />
        </mxCell>
        <mxCell id="f7JHx65rmA6HuPHW3f_H-10" value="Ofis" style="swimlane;fontStyle=0;align=center;verticalAlign=top;childLayout=stackLayout;horizontal=1;startSize=20;horizontalStack=0;resizeParent=1;resizeLast=0;collapsible=1;marginBottom=0;rounded=0;shadow=0;strokeWidth=1;fillColor=#F2CC8F;strokeColor=#E07A5F;fontColor=#393C56;" vertex="1" parent="1">
          <mxGeometry x="548" y="358" width="160" height="70" as="geometry">
            <mxRectangle x="340" y="380" width="170" height="26" as="alternateBounds" />
          </mxGeometry>
        </mxCell>
        <mxCell id="f7JHx65rmA6HuPHW3f_H-11" value="" style="line;html=1;strokeWidth=1;align=left;verticalAlign=middle;spacingTop=-1;spacingLeft=3;spacingRight=3;rotatable=0;labelPosition=right;points=[];portConstraint=eastwest;fillColor=#F2CC8F;strokeColor=#E07A5F;fontColor=#393C56;labelBackgroundColor=#F4F1DE;" vertex="1" parent="f7JHx65rmA6HuPHW3f_H-10">
          <mxGeometry y="20" width="160" height="8" as="geometry" />
        </mxCell>
        <mxCell id="f7JHx65rmA6HuPHW3f_H-12" value="" style="endArrow=none;html=1;rounded=0;strokeColor=#E07A5F;fontColor=#393C56;labelBackgroundColor=#F4F1DE;" edge="1" parent="1">
          <mxGeometry width="50" height="50" relative="1" as="geometry">
            <mxPoint x="420" y="398" as="sourcePoint" />
            <mxPoint x="550" y="398" as="targetPoint" />
          </mxGeometry>
        </mxCell>
        <mxCell id="f7JHx65rmA6HuPHW3f_H-13" value="1" style="text;strokeColor=none;fillColor=none;align=left;verticalAlign=middle;spacingTop=-1;spacingLeft=4;spacingRight=4;rotatable=0;labelPosition=right;points=[];portConstraint=eastwest;rounded=0;sketch=0;fontColor=#393C56;" vertex="1" parent="1">
          <mxGeometry x="513" y="378" width="20" height="14" as="geometry" />
        </mxCell>
        <mxCell id="f7JHx65rmA6HuPHW3f_H-14" value="Departman" style="swimlane;fontStyle=0;align=center;verticalAlign=top;childLayout=stackLayout;horizontal=1;startSize=20;horizontalStack=0;resizeParent=1;resizeLast=0;collapsible=1;marginBottom=0;rounded=0;shadow=0;strokeWidth=1;fillColor=#F2CC8F;strokeColor=#E07A5F;fontColor=#393C56;" vertex="1" parent="1">
          <mxGeometry x="584" y="218" width="160" height="70" as="geometry">
            <mxRectangle x="340" y="380" width="170" height="26" as="alternateBounds" />
          </mxGeometry>
        </mxCell>
        <mxCell id="f7JHx65rmA6HuPHW3f_H-15" value="" style="line;html=1;strokeWidth=1;align=left;verticalAlign=middle;spacingTop=-1;spacingLeft=3;spacingRight=3;rotatable=0;labelPosition=right;points=[];portConstraint=eastwest;fillColor=#F2CC8F;strokeColor=#E07A5F;fontColor=#393C56;labelBackgroundColor=#F4F1DE;" vertex="1" parent="f7JHx65rmA6HuPHW3f_H-14">
          <mxGeometry y="20" width="160" height="8" as="geometry" />
        </mxCell>
        <mxCell id="f7JHx65rmA6HuPHW3f_H-16" value="0..n" style="edgeLabel;resizable=0;html=1;align=left;verticalAlign=top;rounded=0;sketch=0;fontColor=#393C56;strokeColor=#E07A5F;fillColor=#F2CC8F;labelBackgroundColor=#F4F1DE;" connectable="0" vertex="1" parent="1">
          <mxGeometry x="628" y="287" as="geometry" />
        </mxCell>
        <mxCell id="f7JHx65rmA6HuPHW3f_H-17" value="Üniversite" style="swimlane;fontStyle=0;align=center;verticalAlign=top;childLayout=stackLayout;horizontal=1;startSize=20;horizontalStack=0;resizeParent=1;resizeLast=0;collapsible=1;marginBottom=0;rounded=0;shadow=0;strokeWidth=1;fillColor=#F2CC8F;strokeColor=#E07A5F;fontColor=#393C56;" vertex="1" parent="1">
          <mxGeometry x="340" y="218" width="160" height="70" as="geometry">
            <mxRectangle x="340" y="380" width="170" height="26" as="alternateBounds" />
          </mxGeometry>
        </mxCell>
        <mxCell id="f7JHx65rmA6HuPHW3f_H-18" value="1" style="text;strokeColor=none;fillColor=none;align=left;verticalAlign=middle;spacingTop=-1;spacingLeft=4;spacingRight=4;rotatable=0;labelPosition=right;points=[];portConstraint=eastwest;rounded=0;sketch=0;fontColor=#393C56;" vertex="1" parent="f7JHx65rmA6HuPHW3f_H-17">
          <mxGeometry y="20" width="160" height="10" as="geometry" />
        </mxCell>
        <mxCell id="f7JHx65rmA6HuPHW3f_H-19" value="" style="line;html=1;strokeWidth=1;align=left;verticalAlign=middle;spacingTop=-1;spacingLeft=3;spacingRight=3;rotatable=0;labelPosition=right;points=[];portConstraint=eastwest;fillColor=#F2CC8F;strokeColor=#E07A5F;fontColor=#393C56;labelBackgroundColor=#F4F1DE;" vertex="1" parent="f7JHx65rmA6HuPHW3f_H-17">
          <mxGeometry y="30" width="160" height="8" as="geometry" />
        </mxCell>
        <mxCell id="f7JHx65rmA6HuPHW3f_H-20" value="Çalışma Ofisleri" style="swimlane;fontStyle=0;align=center;verticalAlign=top;childLayout=stackLayout;horizontal=1;startSize=20;horizontalStack=0;resizeParent=1;resizeLast=0;collapsible=1;marginBottom=0;rounded=0;shadow=0;strokeWidth=1;fillColor=#F2CC8F;strokeColor=#E07A5F;fontColor=#393C56;" vertex="1" parent="1">
          <mxGeometry x="98" y="218" width="160" height="70" as="geometry">
            <mxRectangle x="340" y="380" width="170" height="26" as="alternateBounds" />
          </mxGeometry>
        </mxCell>
        <mxCell id="f7JHx65rmA6HuPHW3f_H-21" value="0..n" style="text;strokeColor=none;fillColor=none;align=left;verticalAlign=middle;spacingTop=-1;spacingLeft=4;spacingRight=4;rotatable=0;labelPosition=right;points=[];portConstraint=eastwest;rounded=0;sketch=0;fontColor=#393C56;" vertex="1" parent="f7JHx65rmA6HuPHW3f_H-20">
          <mxGeometry y="20" width="160" height="10" as="geometry" />
        </mxCell>
        <mxCell id="f7JHx65rmA6HuPHW3f_H-22" value="" style="line;html=1;strokeWidth=1;align=left;verticalAlign=middle;spacingTop=-1;spacingLeft=3;spacingRight=3;rotatable=0;labelPosition=right;points=[];portConstraint=eastwest;fillColor=#F2CC8F;strokeColor=#E07A5F;fontColor=#393C56;labelBackgroundColor=#F4F1DE;" vertex="1" parent="f7JHx65rmA6HuPHW3f_H-20">
          <mxGeometry y="30" width="160" height="8" as="geometry" />
        </mxCell>
        <mxCell id="f7JHx65rmA6HuPHW3f_H-23" value="Sınıflıklar" style="swimlane;fontStyle=0;align=center;verticalAlign=top;childLayout=stackLayout;horizontal=1;startSize=20;horizontalStack=0;resizeParent=1;resizeLast=0;collapsible=1;marginBottom=0;rounded=0;shadow=0;strokeWidth=1;fillColor=#F2CC8F;strokeColor=#E07A5F;fontColor=#393C56;" vertex="1" parent="1">
          <mxGeometry x="340" y="98" width="160" height="70" as="geometry">
            <mxRectangle x="340" y="380" width="170" height="26" as="alternateBounds" />
          </mxGeometry>
        </mxCell>
        <mxCell id="f7JHx65rmA6HuPHW3f_H-24" value="" style="line;html=1;strokeWidth=1;align=left;verticalAlign=middle;spacingTop=-1;spacingLeft=3;spacingRight=3;rotatable=0;labelPosition=right;points=[];portConstraint=eastwest;fillColor=#F2CC8F;strokeColor=#E07A5F;fontColor=#393C56;labelBackgroundColor=#F4F1DE;" vertex="1" parent="f7JHx65rmA6HuPHW3f_H-23">
          <mxGeometry y="20" width="160" height="8" as="geometry" />
        </mxCell>
        <mxCell id="f7JHx65rmA6HuPHW3f_H-25" value="" style="endArrow=diamondThin;endFill=0;endSize=24;html=1;rounded=1;sketch=0;fontColor=#393C56;strokeColor=#E07A5F;fillColor=#F2CC8F;curved=0;exitX=0.45;exitY=0;exitDx=0;exitDy=0;exitPerimeter=0;labelBackgroundColor=#F4F1DE;" edge="1" parent="1" source="f7JHx65rmA6HuPHW3f_H-10">
          <mxGeometry width="160" relative="1" as="geometry">
            <mxPoint x="550" y="288" as="sourcePoint" />
            <mxPoint x="620" y="288" as="targetPoint" />
          </mxGeometry>
        </mxCell>
        <mxCell id="f7JHx65rmA6HuPHW3f_H-26" value="0..n" style="text;strokeColor=none;fillColor=none;align=left;verticalAlign=middle;spacingTop=-1;spacingLeft=4;spacingRight=4;rotatable=0;labelPosition=right;points=[];portConstraint=eastwest;rounded=0;sketch=0;fontColor=#393C56;" vertex="1" parent="1">
          <mxGeometry x="600" y="344" width="20" height="14" as="geometry" />
        </mxCell>
        <mxCell id="f7JHx65rmA6HuPHW3f_H-27" value="" style="endArrow=diamondThin;endFill=0;endSize=24;html=1;rounded=1;sketch=0;fontColor=#393C56;strokeColor=#E07A5F;fillColor=#F2CC8F;curved=0;exitX=1;exitY=0.5;exitDx=0;exitDy=0;entryX=0;entryY=0.5;entryDx=0;entryDy=0;labelBackgroundColor=#F4F1DE;" edge="1" parent="1" source="f7JHx65rmA6HuPHW3f_H-20" target="f7JHx65rmA6HuPHW3f_H-17">
          <mxGeometry width="160" relative="1" as="geometry">
            <mxPoint x="200" y="198" as="sourcePoint" />
            <mxPoint x="340" y="138" as="targetPoint" />
            <Array as="points" />
          </mxGeometry>
        </mxCell>
        <mxCell id="f7JHx65rmA6HuPHW3f_H-28" value="1" style="text;strokeColor=none;fillColor=none;align=left;verticalAlign=middle;spacingTop=-1;spacingLeft=4;spacingRight=4;rotatable=0;labelPosition=right;points=[];portConstraint=eastwest;rounded=0;sketch=0;fontColor=#393C56;" vertex="1" parent="1">
          <mxGeometry x="287" y="238" width="20" height="10" as="geometry" />
        </mxCell>
        <mxCell id="f7JHx65rmA6HuPHW3f_H-29" value="" style="endArrow=diamondThin;endFill=0;endSize=24;html=1;rounded=1;sketch=0;fontColor=#393C56;strokeColor=#E07A5F;fillColor=#F2CC8F;curved=0;entryX=-0.003;entryY=1.329;entryDx=0;entryDy=0;entryPerimeter=0;exitX=0.5;exitY=1;exitDx=0;exitDy=0;labelBackgroundColor=#F4F1DE;" edge="1" parent="1" source="f7JHx65rmA6HuPHW3f_H-23">
          <mxGeometry width="160" relative="1" as="geometry">
            <mxPoint x="370" y="168" as="sourcePoint" />
            <mxPoint x="419.94000000000005" y="219.28999999999996" as="targetPoint" />
            <Array as="points">
              <mxPoint x="420" y="198" />
            </Array>
          </mxGeometry>
        </mxCell>
        <mxCell id="f7JHx65rmA6HuPHW3f_H-30" value="" style="endArrow=diamondThin;endFill=0;endSize=24;html=1;rounded=1;sketch=0;fontColor=#393C56;strokeColor=#E07A5F;fillColor=#F2CC8F;curved=0;labelBackgroundColor=#F4F1DE;" edge="1" parent="1">
          <mxGeometry width="160" relative="1" as="geometry">
            <mxPoint x="589" y="254" as="sourcePoint" />
            <mxPoint x="499" y="254" as="targetPoint" />
            <Array as="points">
              <mxPoint x="539" y="254" />
            </Array>
          </mxGeometry>
        </mxCell>
        <mxCell id="f7JHx65rmA6HuPHW3f_H-31" value="0..n" style="text;strokeColor=none;fillColor=none;align=left;verticalAlign=middle;spacingTop=-1;spacingLeft=4;spacingRight=4;rotatable=0;labelPosition=right;points=[];portConstraint=eastwest;rounded=0;sketch=0;fontColor=#393C56;" vertex="1" parent="1">
          <mxGeometry x="533" y="238" width="20" height="10" as="geometry" />
        </mxCell>
        <mxCell id="f7JHx65rmA6HuPHW3f_H-32" value="1" style="text;strokeColor=none;fillColor=none;align=left;verticalAlign=middle;spacingTop=-1;spacingLeft=4;spacingRight=4;rotatable=0;labelPosition=right;points=[];portConstraint=eastwest;rounded=0;sketch=0;fontColor=#393C56;" vertex="1" parent="1">
          <mxGeometry x="380" y="207" width="20" height="10" as="geometry" />
        </mxCell>
        <mxCell id="f7JHx65rmA6HuPHW3f_H-33" value="0..n" style="text;strokeColor=none;fillColor=none;align=left;verticalAlign=middle;spacingTop=-1;spacingLeft=4;spacingRight=4;rotatable=0;labelPosition=right;points=[];portConstraint=eastwest;rounded=0;sketch=0;fontColor=#393C56;" vertex="1" parent="1">
          <mxGeometry x="230" y="168" width="160" height="10" as="geometry" />
        </mxCell>
        <mxCell id="f7JHx65rmA6HuPHW3f_H-34" value="" style="endArrow=diamondThin;endFill=0;endSize=24;html=1;rounded=1;sketch=0;fontColor=#393C56;strokeColor=#E07A5F;fillColor=#F2CC8F;curved=0;exitX=0.5;exitY=0;exitDx=0;exitDy=0;labelBackgroundColor=#F4F1DE;" edge="1" parent="1" source="f7JHx65rmA6HuPHW3f_H-7">
          <mxGeometry width="160" relative="1" as="geometry">
            <mxPoint x="430" y="398" as="sourcePoint" />
            <mxPoint x="420" y="288" as="targetPoint" />
            <Array as="points">
              <mxPoint x="340" y="318" />
              <mxPoint x="420" y="318" />
            </Array>
          </mxGeometry>
        </mxCell>
        <mxCell id="f7JHx65rmA6HuPHW3f_H-35" value="0..n" style="text;strokeColor=none;fillColor=none;align=left;verticalAlign=middle;spacingTop=-1;spacingLeft=4;spacingRight=4;rotatable=0;labelPosition=right;points=[];portConstraint=eastwest;rounded=0;sketch=0;fontColor=#393C56;" vertex="1" parent="1">
          <mxGeometry x="289" y="338" width="20" height="14" as="geometry" />
        </mxCell>
      </root>
    </mxGraphModel>
  </diagram>
</mxfile>
